<svg version="1.1" id="Layer_1" xmlns="http://www.w3.org/2000/svg" xmlns:xlink="http://www.w3.org/1999/xlink" x="0px" y="0px"
	 width="100%" viewBox="0 0 474 475" enable-background="new 0 0 474 475" xml:space="preserve">
<path fill="#111111" opacity="1.000000" stroke="none" 
	d="
M1.000000,475.000000 
	C1.000000,329.975922 1.000000,184.951843 1.340694,39.322830 
	C3.642211,30.389894 7.084847,22.832438 12.711858,16.261501 
	C19.252855,8.623260 27.804192,4.334820 37.000000,1.000000 
	C182.928711,1.000000 328.857422,1.000000 475.000000,1.000000 
	C475.000000,147.024002 475.000000,293.048126 474.674835,439.686523 
	C466.171936,463.471741 449.887238,474.992523 425.312897,474.992920 
	C283.875275,474.995239 142.437637,474.997650 1.000000,475.000000 
M96.647385,359.081116 
	C96.647385,359.081116 97.114090,358.972778 97.211769,359.908905 
	C97.158325,366.303680 97.104889,372.698425 96.364731,378.718475 
	C95.730675,378.645477 95.096619,378.572479 94.462563,378.499481 
	C95.274109,379.376068 96.085663,380.252686 97.051895,381.772980 
	C97.475380,382.289001 97.898857,382.804993 99.169670,384.353485 
	C99.169670,373.981262 99.169670,364.957123 99.585945,355.568878 
	C99.587250,354.975952 99.588554,354.383057 99.589867,353.790131 
	C99.057289,354.427338 98.524704,355.064545 97.466881,356.014526 
	C97.284203,356.339935 97.101517,356.665314 96.491653,357.313324 
	C96.096275,357.671814 95.700897,358.030304 94.819916,358.765778 
	C94.728348,359.414154 94.636780,360.062500 94.545204,360.710876 
	C95.088882,360.196655 95.632561,359.682465 96.647385,359.081116 
M108.703651,351.026154 
	C109.303780,350.635742 109.903908,350.245331 110.504044,349.854919 
	C110.284920,349.646881 109.910873,349.231079 109.869766,349.261749 
	C109.188080,349.770050 108.548218,350.334412 107.344795,350.898651 
	C106.727829,350.898651 106.110863,350.898651 105.493896,350.898651 
	C105.549522,351.207214 105.605148,351.515747 105.660774,351.824310 
	C106.452126,351.570984 107.243469,351.317688 108.703651,351.026154 
M93.735558,375.569336 
	C93.702080,375.876953 93.668602,376.184601 93.635124,376.492218 
	C93.918373,376.506439 94.201630,376.520660 94.484886,376.534851 
	C94.348907,376.006256 94.212929,375.477661 94.050247,374.080322 
	C94.050247,371.792572 94.050247,369.504852 94.050247,367.217102 
	C93.554466,367.266174 93.058685,367.315247 92.562904,367.364319 
	C92.987946,369.945343 93.412979,372.526337 93.735558,375.569336 
M264.900116,387.729309 
	C264.957123,375.489075 265.014130,363.248840 265.970245,351.007935 
	C268.922668,351.007935 271.875092,351.007935 274.827484,351.007935 
	C274.806396,350.444458 274.785309,349.881012 274.764191,349.317535 
	C269.798309,349.317535 264.832458,349.317535 259.289276,349.250366 
	C258.903107,349.272766 258.516937,349.295135 257.235291,349.066376 
	C254.206772,349.066376 251.178253,349.066376 248.149734,349.066376 
	C248.166565,349.754364 248.183380,350.442383 248.200211,351.130371 
	C251.432755,351.130371 254.665314,351.130371 257.979584,352.048096 
	C257.983612,354.520203 257.953613,356.992950 257.997589,359.464355 
	C258.169922,369.145874 258.365631,378.827026 259.213837,388.892609 
	C260.960358,388.762329 262.706879,388.632050 264.900116,387.729309 
M157.224060,355.069031 
	C157.658051,355.110565 158.092041,355.152100 158.526016,355.193634 
	C158.026596,354.794403 157.527161,354.395172 156.568039,353.418915 
	C156.054565,352.351227 155.541092,351.283539 154.807526,349.758209 
	C154.807526,363.132812 154.807526,375.824341 154.807526,388.515839 
	C155.207550,388.505035 155.607574,388.494232 156.007599,388.483429 
	C156.007599,383.340515 156.464905,378.144592 155.876541,373.069885 
	C155.309677,368.180756 158.499161,363.472351 156.110306,358.551544 
	C155.657623,357.619110 156.473572,356.070801 157.224060,355.069031 
M302.294525,364.359009 
	C302.206146,363.907104 302.117737,363.455200 301.458221,362.470093 
	C301.027710,360.192810 299.456573,357.101593 300.388062,355.796234 
	C302.837372,352.363953 300.115662,351.850616 298.669495,350.212372 
	C298.669495,363.211975 298.669495,375.885376 298.669495,388.558777 
	C299.115601,388.553284 299.561676,388.547760 300.007782,388.542236 
	C300.007782,381.676971 299.903351,374.808716 300.098907,367.949036 
	C300.136475,366.631317 301.352295,365.347198 302.294525,364.359009 
M215.290787,349.067963 
	C213.319519,349.221252 211.348267,349.374542 209.377014,349.527832 
	C209.424942,349.960938 209.472870,350.394012 209.520798,350.827087 
	C211.646469,350.928192 213.772156,351.029297 215.979568,352.048065 
	C215.979568,363.785858 215.979568,375.523682 215.979568,387.362610 
	C213.611572,387.639679 211.661224,387.867920 209.710876,388.096130 
	C209.749313,388.400208 209.787766,388.704285 209.826202,389.008362 
	C212.283493,389.008362 214.740768,389.008331 217.198059,389.008331 
	C219.457535,389.008331 221.716995,389.008362 223.976471,389.008362 
	C217.289398,387.164307 217.289352,387.164307 217.288635,380.129761 
	C217.288422,378.139069 217.243408,376.147156 217.296570,374.157898 
	C217.503403,366.420929 217.741425,358.684753 218.809891,350.994019 
	C220.639252,350.994019 222.468613,350.994019 224.297974,350.994019 
	C224.299194,350.435181 224.300430,349.876373 224.301666,349.317535 
	C222.156631,349.317535 220.011581,349.317535 217.289246,349.250366 
	C216.903091,349.272736 216.516937,349.295135 215.290787,349.067963 
M96.999718,292.500000 
	C96.999718,304.499817 96.998444,316.499603 97.000122,328.499420 
	C97.001457,338.036316 98.918716,339.999298 108.250229,339.999451 
	C193.083328,340.000702 277.916443,340.000702 362.749542,339.999451 
	C371.962616,339.999329 373.998871,338.010559 373.999084,328.999695 
	C374.000977,247.666580 374.000946,166.333466 373.999084,85.000351 
	C373.998871,75.989609 371.962463,74.000595 362.749542,74.000465 
	C277.916443,73.999207 193.083344,73.999184 108.250244,74.000465 
	C98.918716,74.000610 97.000275,75.963707 97.000160,85.500565 
	C96.999329,154.167038 96.999718,222.833527 96.999718,292.500000 
M327.892059,354.426392 
	C328.165161,355.986847 328.660797,357.545319 328.674438,359.108063 
	C328.751038,367.889252 328.696014,376.671509 328.734467,385.453217 
	C328.738525,386.383606 329.058502,387.312592 329.231934,388.242249 
	C329.374939,388.202576 329.517975,388.162933 329.660980,388.123260 
	C329.660980,375.822418 329.660980,363.521606 329.660980,351.220764 
	C329.429749,351.165527 329.198547,351.110291 328.967316,351.055054 
	C328.511749,351.990723 328.056183,352.926422 327.892059,354.426392 
M184.805374,374.488495 
	C184.805374,379.102814 184.805374,383.717133 184.805374,388.331451 
	C185.132034,388.316193 185.458710,388.300934 185.785370,388.285675 
	C185.785370,375.930817 185.785370,363.575989 185.785370,351.221130 
	C185.325623,351.203949 184.865860,351.186798 184.406113,351.169617 
	C184.539200,358.610504 184.672287,366.051361 184.805374,374.488495 
M117.543785,386.663696 
	C117.491280,386.820221 117.390442,386.979828 117.400146,387.132385 
	C117.409462,387.278870 117.588936,387.546600 117.599060,387.542236 
	C118.988976,386.941467 120.370216,386.320618 121.751862,385.700714 
	C121.553223,385.350983 121.354584,385.001282 121.155945,384.651550 
	C120.115021,385.267181 119.074097,385.882782 117.543785,386.663696 
M309.648010,372.366974 
	C308.766205,371.910034 307.884430,371.453094 307.002625,370.996155 
	C306.849884,371.473907 306.697174,371.951691 306.544464,372.429443 
	C307.604156,372.604248 308.663879,372.779022 309.648010,372.366974 
M161.848816,367.462128 
	C161.144424,367.362122 160.440033,367.262085 159.735626,367.162079 
	C159.797699,367.638000 159.859772,368.113922 159.921844,368.589844 
	C160.715118,368.349213 161.508408,368.108582 161.848816,367.462128 
M164.182877,364.105835 
	C164.652756,363.838409 165.122635,363.570984 165.592514,363.303558 
	C164.661469,363.001831 163.730438,362.700073 162.799408,362.398315 
	C163.076599,362.887573 163.353775,363.376801 164.182877,364.105835 
M122.563133,353.177948 
	C121.781921,352.727631 121.000710,352.277283 120.219505,351.826935 
	C120.073624,352.125488 119.927750,352.424042 119.781868,352.722565 
	C120.586220,353.021790 121.390572,353.321014 122.563133,353.177948 
M160.683502,359.714233 
	C160.945206,359.320953 161.206924,358.927673 161.468643,358.534363 
	C161.056976,358.400787 160.645309,358.267212 160.233658,358.133636 
	C160.211319,358.586670 160.188995,359.039734 160.683502,359.714233 
M110.813332,388.030914 
	C111.340446,388.141296 111.867561,388.251678 112.394676,388.362091 
	C112.391457,388.081573 112.410553,387.559021 112.381737,387.556335 
	C111.837517,387.506195 111.287643,387.517548 110.813332,388.030914 
M130.478683,363.743713 
	C130.116516,364.153900 129.744080,364.556519 129.420914,364.995392 
	C129.403793,365.018646 129.803406,365.348755 130.009018,365.536011 
	C130.281342,365.071991 130.553650,364.607941 130.478683,363.743713 
M102.304398,384.718323 
	C102.150261,384.694611 101.986855,384.628387 101.844658,384.659424 
	C101.709167,384.688934 101.595795,384.819916 101.472687,384.906250 
	C101.820145,385.334259 102.104721,385.856049 102.542366,386.149567 
	C102.751694,386.289948 103.251251,385.997620 103.619354,385.901276 
	C103.337448,385.572357 103.055534,385.243439 102.304398,384.718323 
M168.362335,368.428833 
	C168.177734,367.810791 167.993149,367.192780 167.808533,366.574707 
	C167.426331,366.764099 167.044113,366.953491 166.661911,367.142883 
	C167.053513,367.550415 167.445099,367.957977 168.362335,368.428833 
M311.624329,367.231293 
	C311.101593,366.880219 310.578888,366.529144 310.056183,366.178040 
	C309.952850,366.427795 309.729065,366.875763 309.764435,366.897278 
	C310.237518,367.184784 310.746826,367.412659 311.624329,367.231293 
M167.332138,374.035492 
	C168.117355,373.835083 168.902573,373.634674 169.687790,373.434265 
	C169.563049,373.124146 169.438309,372.813995 169.313568,372.503876 
	C168.674149,372.837982 168.034744,373.172089 167.332138,374.035492 
M164.724411,371.767029 
	C164.337692,371.716797 163.950989,371.666565 163.564255,371.616302 
	C163.563049,371.892487 163.561844,372.168640 163.560654,372.444794 
	C163.950989,372.402069 164.341339,372.359344 164.724411,371.767029 
M304.168884,358.097717 
	C304.336609,358.488373 304.504333,358.879028 304.672058,359.269714 
	C304.995056,359.125122 305.318054,358.980560 305.641052,358.835968 
	C305.318451,358.575989 304.995819,358.316010 304.168884,358.097717 
M304.665436,367.054321 
	C304.412415,367.289276 304.159424,367.524231 303.906403,367.759186 
	C304.431000,367.930084 304.955566,368.101013 305.480164,368.271942 
	C305.377808,367.906616 305.275452,367.541290 304.665436,367.054321 
M308.348755,363.395996 
	C308.188049,362.968201 308.027344,362.540375 307.866638,362.112579 
	C307.513519,362.257874 307.160370,362.403168 306.807251,362.548431 
	C307.150787,362.815369 307.494324,363.082336 308.348755,363.395996 
M311.252472,373.590546 
	C311.446991,373.865356 311.641479,374.140167 311.835999,374.414978 
	C312.034119,374.220367 312.232239,374.025787 312.430359,373.831177 
	C312.158997,373.632080 311.887665,373.432953 311.252472,373.590546 
M127.645233,378.334991 
	C127.695541,378.667969 127.745857,379.000946 127.796165,379.333923 
	C127.888023,378.982269 127.979881,378.630646 127.645233,378.334991 
M128.050705,359.718414 
	C128.029648,359.379303 128.008591,359.040222 127.987534,358.701111 
	C127.748306,358.774506 127.509079,358.847900 127.269859,358.921326 
	C127.386116,359.168121 127.502380,359.414886 128.050705,359.718414 
z"/>
<path fill="#FBFBFC" opacity="1.000000" stroke="none" 
	d="
M1.000000,475.500000 
	C142.437637,474.997650 283.875275,474.995239 425.312897,474.992920 
	C449.887238,474.992523 466.171936,463.471741 474.674835,440.150391 
	C475.000000,451.988251 475.000000,463.976501 475.000000,476.000000 
	C317.000000,476.000000 159.000000,476.000000 1.000000,475.500000 
z"/>
<path fill="#F7F7FA" opacity="1.000000" stroke="none" 
	d="
M36.531342,1.000000 
	C27.804192,4.334820 19.252855,8.623260 12.711858,16.261501 
	C7.084847,22.832438 3.642211,30.389894 1.340694,38.858948 
	C1.000000,26.408699 1.000000,13.817398 1.000000,1.000000 
	C12.686590,1.000000 24.374636,1.000000 36.531342,1.000000 
z"/>
<path fill="#617CFF" opacity="1.000000" stroke="none" 
	d="
M96.999718,292.000000 
	C96.999718,222.833527 96.999329,154.167038 97.000160,85.500565 
	C97.000275,75.963707 98.918716,74.000610 108.250244,74.000465 
	C193.083344,73.999184 277.916443,73.999207 362.749542,74.000465 
	C371.962463,74.000595 373.998871,75.989609 373.999084,85.000351 
	C374.000946,166.333466 374.000977,247.666580 373.999084,328.999695 
	C373.998871,338.010559 371.962616,339.999329 362.749542,339.999451 
	C277.916443,340.000702 193.083328,340.000702 108.250229,339.999451 
	C98.918716,339.999298 97.001457,338.036316 97.000122,328.499420 
	C96.998444,316.499603 96.999718,304.499817 96.999718,292.000000 
M324.500000,337.001648 
	C337.165894,337.001648 349.831787,337.003540 362.497681,337.001007 
	C370.437622,336.999420 371.000885,336.436981 371.000977,328.488953 
	C371.002075,247.493286 371.002106,166.497635 371.001007,85.501976 
	C371.000885,77.562378 370.436951,76.999046 362.488586,76.998947 
	C277.826447,76.997841 193.164337,76.997833 108.502205,76.998955 
	C100.562416,76.999062 99.999054,77.563095 99.998940,85.511177 
	C99.997818,166.506836 99.997818,247.502487 99.998962,328.498138 
	C99.999077,336.437653 100.563110,337.000854 108.511536,337.000977 
	C180.174362,337.002136 251.837173,337.001648 324.500000,337.001648 
z"/>
<path fill="#C0C0C0" opacity="1.000000" stroke="none" 
	d="
M217.967834,350.948303 
	C217.741425,358.684753 217.503403,366.420929 217.296570,374.157898 
	C217.243408,376.147156 217.288422,378.139069 217.288635,380.129761 
	C217.289352,387.164307 217.289398,387.164307 223.976471,389.008362 
	C221.716995,389.008362 219.457535,389.008331 217.198059,389.008331 
	C214.740768,389.008331 212.283493,389.008362 209.826202,389.008362 
	C209.787766,388.704285 209.749313,388.400208 209.710876,388.096130 
	C211.661224,387.867920 213.611572,387.639679 215.979568,387.362610 
	C215.979568,375.523682 215.979568,363.785858 215.983780,351.287445 
	C216.035583,350.123718 216.083191,349.720642 216.130798,349.317535 
	C216.516937,349.295135 216.903091,349.272736 217.577911,349.556946 
	C217.900314,350.225128 217.934067,350.586700 217.967834,350.948303 
z"/>
<path fill="#868686" opacity="1.000000" stroke="none" 
	d="
M302.024567,364.047577 
	C301.352295,365.347198 300.136475,366.631317 300.098907,367.949036 
	C299.903351,374.808716 300.007782,381.676971 300.007782,388.542236 
	C299.561676,388.547760 299.115601,388.553284 298.669495,388.558777 
	C298.669495,375.885376 298.669495,363.211975 298.669495,350.212372 
	C300.115662,351.850616 302.837372,352.363953 300.388062,355.796234 
	C299.456573,357.101593 301.027710,360.192810 301.712006,362.997620 
	C301.985382,363.699280 302.004974,363.873413 302.024567,364.047577 
z"/>
<path fill="#868686" opacity="1.000000" stroke="none" 
	d="
M156.704178,354.806641 
	C156.473572,356.070801 155.657623,357.619110 156.110306,358.551544 
	C158.499161,363.472351 155.309677,368.180756 155.876541,373.069885 
	C156.464905,378.144592 156.007599,383.340515 156.007599,388.483429 
	C155.607574,388.494232 155.207550,388.505035 154.807526,388.515839 
	C154.807526,375.824341 154.807526,363.132812 154.807526,349.758209 
	C155.541092,351.283539 156.054565,352.351227 156.710037,353.907349 
	C156.852036,354.395813 156.704178,354.806641 156.704178,354.806641 
z"/>
<path fill="#C0C0C0" opacity="1.000000" stroke="none" 
	d="
M327.746338,354.144226 
	C328.056183,352.926422 328.511749,351.990723 328.967316,351.055054 
	C329.198547,351.110291 329.429749,351.165527 329.660980,351.220764 
	C329.660980,363.521606 329.660980,375.822418 329.660980,388.123260 
	C329.517975,388.162933 329.374939,388.202576 329.231934,388.242249 
	C329.058502,387.312592 328.738525,386.383606 328.734467,385.453217 
	C328.696014,376.671509 328.751038,367.889252 328.674438,359.108063 
	C328.660797,357.545319 328.165161,355.986847 327.746338,354.144226 
z"/>
<path fill="#F6F6F6" opacity="1.000000" stroke="none" 
	d="
M184.805389,373.990356 
	C184.672287,366.051361 184.539200,358.610504 184.406113,351.169617 
	C184.865860,351.186798 185.325623,351.203949 185.785370,351.221130 
	C185.785370,363.575989 185.785370,375.930817 185.785370,388.285675 
	C185.458710,388.300934 185.132034,388.316193 184.805374,388.331451 
	C184.805374,383.717133 184.805374,379.102814 184.805389,373.990356 
z"/>
<path fill="#C0C0C0" opacity="1.000000" stroke="none" 
	d="
M96.918823,356.990692 
	C97.101517,356.665314 97.284203,356.339935 98.025864,355.905884 
	C98.779785,355.842468 98.974731,355.887695 99.169670,355.932953 
	C99.169670,364.957123 99.169670,373.981262 99.169670,384.353485 
	C97.898857,382.804993 97.475380,382.289001 97.019684,381.112122 
	C97.008804,379.998596 97.030128,379.545898 97.051453,379.093201 
	C97.104889,372.698425 97.158325,366.303680 97.398453,359.304779 
	C97.363037,358.130676 97.140930,357.560669 96.918823,356.990692 
z"/>
<path fill="#C0C0C0" opacity="1.000000" stroke="none" 
	d="
M258.130737,349.317535 
	C258.516937,349.295135 258.903107,349.272766 259.573792,349.547729 
	C259.884888,350.194946 259.911407,350.544739 259.632446,351.194702 
	C259.365265,363.512268 259.403595,375.529694 259.216278,387.784332 
	C258.844635,388.183807 258.698639,388.346039 258.552612,388.508301 
	C258.365631,378.827026 258.169922,369.145874 257.997589,359.464355 
	C257.953613,356.992950 257.983612,354.520203 257.983765,351.287476 
	C258.035553,350.123718 258.083160,349.720642 258.130737,349.317535 
z"/>
<path fill="#C0C0C0" opacity="1.000000" stroke="none" 
	d="
M265.071167,351.008606 
	C265.014130,363.248840 264.957123,375.489075 264.454742,387.875244 
	C263.857086,387.865051 263.704803,387.708923 263.644928,387.124268 
	C263.752228,374.805481 263.767151,362.915192 264.104340,351.021912 
	C264.641479,351.015472 264.856323,351.012054 265.071167,351.008606 
z"/>
<path fill="#868686" opacity="1.000000" stroke="none" 
	d="
M265.520691,351.008270 
	C264.856323,351.012054 264.641479,351.015472 263.719971,351.015747 
	C261.988159,350.973236 260.963074,350.933899 259.937958,350.894562 
	C259.911407,350.544739 259.884888,350.194946 259.862457,349.581329 
	C264.832458,349.317535 269.798309,349.317535 274.764191,349.317535 
	C274.785309,349.881012 274.806396,350.444458 274.827484,351.007935 
	C271.875092,351.007935 268.922668,351.007935 265.520691,351.008270 
z"/>
<path fill="#868686" opacity="1.000000" stroke="none" 
	d="
M257.683014,349.191956 
	C258.083160,349.720642 258.035553,350.123718 257.942902,350.828613 
	C254.665314,351.130371 251.432755,351.130371 248.200211,351.130371 
	C248.183380,350.442383 248.166565,349.754364 248.149734,349.066376 
	C251.178253,349.066376 254.206772,349.066376 257.683014,349.191956 
z"/>
<path fill="#868686" opacity="1.000000" stroke="none" 
	d="
M218.388855,350.971161 
	C217.934067,350.586700 217.900314,350.225128 217.866547,349.590515 
	C220.011581,349.317535 222.156631,349.317535 224.301666,349.317535 
	C224.300430,349.876373 224.299194,350.435181 224.297974,350.994019 
	C222.468613,350.994019 220.639252,350.994019 218.388855,350.971161 
z"/>
<path fill="#868686" opacity="1.000000" stroke="none" 
	d="
M215.710785,349.192749 
	C216.083191,349.720642 216.035583,350.123718 215.942902,350.828613 
	C213.772156,351.029297 211.646469,350.928192 209.520798,350.827087 
	C209.472870,350.394012 209.424942,349.960938 209.377014,349.527832 
	C211.348267,349.374542 213.319519,349.221252 215.710785,349.192749 
z"/>
<path fill="#171717" opacity="1.000000" stroke="none" 
	d="
M93.838013,375.107361 
	C93.412979,372.526337 92.987946,369.945343 92.562904,367.364319 
	C93.058685,367.315247 93.554466,367.266174 94.050247,367.217102 
	C94.050247,369.504852 94.050247,371.792572 94.004181,374.554749 
	C93.958107,375.029144 93.838013,375.107361 93.838013,375.107361 
z"/>
<path fill="#141414" opacity="1.000000" stroke="none" 
	d="
M117.788483,386.581055 
	C119.074097,385.882782 120.115021,385.267181 121.155945,384.651550 
	C121.354584,385.001282 121.553223,385.350983 121.751862,385.700714 
	C120.370216,386.320618 118.988976,386.941467 117.599060,387.542236 
	C117.588936,387.546600 117.409462,387.278870 117.400146,387.132385 
	C117.390442,386.979828 117.491280,386.820221 117.788483,386.581055 
z"/>
<path fill="#1F1F1F" opacity="1.000000" stroke="none" 
	d="
M309.685791,372.660400 
	C308.663879,372.779022 307.604156,372.604248 306.544464,372.429443 
	C306.697174,371.951691 306.849884,371.473907 307.002625,370.996155 
	C307.884430,371.453094 308.766205,371.910034 309.685791,372.660400 
z"/>
<path fill="#1F1F1F" opacity="1.000000" stroke="none" 
	d="
M162.075256,367.665039 
	C161.508408,368.108582 160.715118,368.349213 159.921844,368.589844 
	C159.859772,368.113922 159.797699,367.638000 159.735626,367.162079 
	C160.440033,367.262085 161.144424,367.362122 162.075256,367.665039 
z"/>
<path fill="#1F1F1F" opacity="1.000000" stroke="none" 
	d="
M163.906921,363.985962 
	C163.353775,363.376801 163.076599,362.887573 162.799408,362.398315 
	C163.730438,362.700073 164.661469,363.001831 165.592514,363.303558 
	C165.122635,363.570984 164.652756,363.838409 163.906921,363.985962 
z"/>
<path fill="#141414" opacity="1.000000" stroke="none" 
	d="
M107.898972,350.886200 
	C108.548218,350.334412 109.188080,349.770050 109.869766,349.261749 
	C109.910873,349.231079 110.284920,349.646881 110.504044,349.854919 
	C109.903908,350.245331 109.303780,350.635742 108.336838,350.999512 
	C107.970032,350.972870 107.898972,350.886200 107.898972,350.886200 
z"/>
<path fill="#141414" opacity="1.000000" stroke="none" 
	d="
M122.379028,353.399109 
	C121.390572,353.321014 120.586220,353.021790 119.781868,352.722565 
	C119.927750,352.424042 120.073624,352.125488 120.219505,351.826935 
	C121.000710,352.277283 121.781921,352.727631 122.379028,353.399109 
z"/>
<path fill="#1F1F1F" opacity="1.000000" stroke="none" 
	d="
M160.425079,359.603516 
	C160.188995,359.039734 160.211319,358.586670 160.233643,358.133606 
	C160.645309,358.267212 161.056976,358.400787 161.468628,358.534363 
	C161.206924,358.927673 160.945206,359.320953 160.425079,359.603516 
z"/>
<path fill="#C0C0C0" opacity="1.000000" stroke="none" 
	d="
M264.231384,388.261475 
	C262.706879,388.632050 260.960358,388.762329 258.883240,388.700439 
	C258.698639,388.346039 258.844635,388.183807 259.555634,387.854980 
	C261.264587,387.643219 262.408569,387.597992 263.552521,387.552795 
	C263.704803,387.708923 263.857086,387.865051 264.231384,388.261475 
z"/>
<path fill="#141414" opacity="1.000000" stroke="none" 
	d="
M110.776138,387.773468 
	C111.287643,387.517548 111.837517,387.506195 112.381737,387.556335 
	C112.410553,387.559021 112.391457,388.081573 112.394676,388.362091 
	C111.867561,388.251678 111.340446,388.141296 110.776138,387.773468 
z"/>
<path fill="#141414" opacity="1.000000" stroke="none" 
	d="
M130.652313,363.943817 
	C130.553650,364.607941 130.281342,365.071991 130.009033,365.536011 
	C129.803406,365.348755 129.403793,365.018646 129.420914,364.995392 
	C129.744080,364.556519 130.116516,364.153900 130.652313,363.943817 
z"/>
<path fill="#141414" opacity="1.000000" stroke="none" 
	d="
M102.539017,384.816406 
	C103.055534,385.243439 103.337448,385.572357 103.619354,385.901276 
	C103.251251,385.997620 102.751694,386.289948 102.542366,386.149567 
	C102.104721,385.856049 101.820145,385.334259 101.472687,384.906250 
	C101.595795,384.819916 101.709167,384.688934 101.844658,384.659424 
	C101.986855,384.628387 102.150261,384.694611 102.539017,384.816406 
z"/>
<path fill="#1F1F1F" opacity="1.000000" stroke="none" 
	d="
M168.099518,368.397156 
	C167.445099,367.957977 167.053513,367.550415 166.661896,367.142883 
	C167.044113,366.953491 167.426331,366.764099 167.808548,366.574707 
	C167.993149,367.192780 168.177734,367.810791 168.099518,368.397156 
z"/>
<path fill="#1F1F1F" opacity="1.000000" stroke="none" 
	d="
M311.435730,367.443329 
	C310.746826,367.412659 310.237518,367.184784 309.764435,366.897278 
	C309.729065,366.875763 309.952850,366.427795 310.056183,366.178040 
	C310.578888,366.529144 311.101593,366.880219 311.435730,367.443329 
z"/>
<path fill="#868686" opacity="1.000000" stroke="none" 
	d="
M96.708092,378.905823 
	C97.030128,379.545898 97.008804,379.998596 96.942352,380.790283 
	C96.085663,380.252686 95.274109,379.376068 94.462563,378.499451 
	C95.096619,378.572479 95.730675,378.645477 96.708092,378.905823 
z"/>
<path fill="#1F1F1F" opacity="1.000000" stroke="none" 
	d="
M167.363739,373.770844 
	C168.034744,373.172089 168.674149,372.837982 169.313568,372.503876 
	C169.438309,372.813995 169.563049,373.124146 169.687790,373.434265 
	C168.902573,373.634674 168.117355,373.835083 167.363739,373.770844 
z"/>
<path fill="#141414" opacity="1.000000" stroke="none" 
	d="
M99.377808,355.750916 
	C98.974731,355.887695 98.779785,355.842468 98.288483,355.749481 
	C98.524704,355.064545 99.057289,354.427338 99.589859,353.790131 
	C99.588554,354.383057 99.587250,354.975952 99.377808,355.750916 
z"/>
<path fill="#1F1F1F" opacity="1.000000" stroke="none" 
	d="
M164.728043,372.041809 
	C164.341339,372.359344 163.950989,372.402069 163.560638,372.444824 
	C163.561844,372.168640 163.563049,371.892487 163.564270,371.616302 
	C163.950989,371.666565 164.337692,371.716797 164.728043,372.041809 
z"/>
<path fill="#141414" opacity="1.000000" stroke="none" 
	d="
M108.002426,351.018616 
	C107.243469,351.317688 106.452126,351.570984 105.660774,351.824310 
	C105.605148,351.515747 105.549522,351.207214 105.493896,350.898651 
	C106.110863,350.898651 106.727829,350.898651 107.621887,350.892426 
	C107.898972,350.886200 107.970032,350.972870 108.002426,351.018616 
z"/>
<path fill="#1F1F1F" opacity="1.000000" stroke="none" 
	d="
M304.421051,358.076874 
	C304.995819,358.316010 305.318451,358.575989 305.641052,358.835999 
	C305.318054,358.980560 304.995056,359.125122 304.672058,359.269714 
	C304.504333,358.879028 304.336609,358.488373 304.421051,358.076874 
z"/>
<path fill="#1F1F1F" opacity="1.000000" stroke="none" 
	d="
M304.919281,367.115143 
	C305.275452,367.541290 305.377808,367.906616 305.480164,368.271942 
	C304.955566,368.101013 304.431000,367.930084 303.906403,367.759186 
	C304.159424,367.524231 304.412415,367.289276 304.919281,367.115143 
z"/>
<path fill="#868686" opacity="1.000000" stroke="none" 
	d="
M96.705238,357.152008 
	C97.140930,357.560669 97.363037,358.130676 97.349617,358.836731 
	C97.114090,358.972778 96.647385,359.081116 96.204163,358.918640 
	C95.609131,358.633728 95.457336,358.511292 95.305527,358.388824 
	C95.700897,358.030304 96.096275,357.671814 96.705238,357.152008 
z"/>
<path fill="#1F1F1F" opacity="1.000000" stroke="none" 
	d="
M308.093323,363.372620 
	C307.494324,363.082336 307.150787,362.815369 306.807251,362.548431 
	C307.160370,362.403168 307.513519,362.257874 307.866638,362.112579 
	C308.027344,362.540375 308.188049,362.968201 308.093323,363.372620 
z"/>
<path fill="#868686" opacity="1.000000" stroke="none" 
	d="
M95.968582,358.962219 
	C95.632561,359.682465 95.088882,360.196655 94.545212,360.710876 
	C94.636780,360.062500 94.728348,359.414154 95.062729,358.577301 
	C95.457336,358.511292 95.609131,358.633728 95.968582,358.962219 
z"/>
<path fill="#1F1F1F" opacity="1.000000" stroke="none" 
	d="
M311.434387,373.412170 
	C311.887665,373.432953 312.158997,373.632080 312.430359,373.831177 
	C312.232239,374.025787 312.034119,374.220367 311.835999,374.414978 
	C311.641479,374.140167 311.446991,373.865356 311.434387,373.412170 
z"/>
<path fill="#171717" opacity="1.000000" stroke="none" 
	d="
M94.017532,374.989105 
	C94.212929,375.477661 94.348907,376.006256 94.484879,376.534851 
	C94.201630,376.520660 93.918373,376.506439 93.635132,376.492218 
	C93.668602,376.184601 93.702080,375.876953 93.786789,375.338348 
	C93.838013,375.107361 93.958107,375.029144 94.017532,374.989105 
z"/>
<path fill="#1F1F1F" opacity="1.000000" stroke="none" 
	d="
M156.964111,354.937836 
	C156.704178,354.806641 156.852036,354.395813 156.939880,354.195862 
	C157.527161,354.395172 158.026596,354.794403 158.526031,355.193634 
	C158.092041,355.152100 157.658051,355.110565 156.964111,354.937836 
z"/>
<path fill="#141414" opacity="1.000000" stroke="none" 
	d="
M127.858482,378.307007 
	C127.979881,378.630646 127.888023,378.982269 127.796165,379.333923 
	C127.745857,379.000946 127.695541,378.667969 127.858482,378.307007 
z"/>
<path fill="#141414" opacity="1.000000" stroke="none" 
	d="
M127.834671,359.690063 
	C127.502380,359.414886 127.386116,359.168121 127.269859,358.921326 
	C127.509079,358.847900 127.748306,358.774506 127.987534,358.701111 
	C128.008591,359.040222 128.029648,359.379303 127.834671,359.690063 
z"/>
<path fill="#1F1F1F" opacity="1.000000" stroke="none" 
	d="
M302.159546,364.203308 
	C302.004974,363.873413 301.985382,363.699280 301.997559,363.264221 
	C302.117737,363.455200 302.206146,363.907104 302.159546,364.203308 
z"/>
<path fill="#121212" opacity="1.000000" stroke="none" 
	d="
M324.000000,337.001648 
	C251.837173,337.001648 180.174362,337.002136 108.511536,337.000977 
	C100.563110,337.000854 99.999077,336.437653 99.998962,328.498138 
	C99.997818,247.502487 99.997818,166.506836 99.998940,85.511177 
	C99.999054,77.563095 100.562416,76.999062 108.502205,76.998955 
	C193.164337,76.997833 277.826447,76.997841 362.488586,76.998947 
	C370.436951,76.999046 371.000885,77.562378 371.001007,85.501976 
	C371.002106,166.497635 371.002075,247.493286 371.000977,328.488953 
	C371.000885,336.436981 370.437622,336.999420 362.497681,337.001007 
	C349.831787,337.003540 337.165894,337.001648 324.000000,337.001648 
M264.876953,277.510529 
	C269.189941,277.510529 273.502930,277.510529 277.997040,277.510529 
	C277.997040,274.822174 277.997040,272.872406 278.869934,270.582458 
	C280.802032,270.582458 282.734131,270.582458 284.788666,270.582458 
	C284.949615,273.058624 285.084534,275.134155 285.247101,277.635132 
	C287.617828,277.635132 289.676941,277.635132 291.786011,277.635132 
	C291.961609,280.144745 292.106171,282.210724 292.265930,284.493652 
	C294.611511,284.493652 296.575989,284.493652 298.755920,284.493652 
	C298.905548,286.842377 299.039886,288.951569 299.188751,291.288239 
	C306.062531,291.288239 312.804718,291.288239 319.779785,291.288239 
	C319.779785,282.056488 319.779785,273.004578 319.779785,263.938019 
	C314.946259,263.507202 310.244171,263.088104 305.574585,262.748718 
	C305.574585,262.748718 305.637970,262.690521 305.980927,261.855316 
	C305.980927,257.883148 305.980927,253.910995 305.980927,249.757492 
	C308.432800,249.589981 310.529480,249.446732 312.803070,249.291412 
	C312.952454,246.998444 313.089478,244.894928 313.232361,242.701752 
	C315.533722,242.563782 317.643890,242.437286 319.648773,242.317093 
	C319.648773,239.800339 319.648773,237.574707 319.648773,235.356018 
	C315.014801,235.356018 310.746155,235.356018 306.219635,235.356018 
	C306.060272,237.787766 305.912689,240.040192 305.766296,242.274094 
	C303.411865,242.445084 301.302155,242.598297 299.191620,242.751572 
	C299.016510,245.164719 298.864227,247.263947 298.681335,249.784698 
	C293.949524,249.784698 289.555481,249.784698 285.128876,249.784698 
	C285.013458,252.188843 284.919464,254.146866 284.819427,256.230896 
	C282.492401,256.230896 280.437378,256.230896 278.218140,256.230896 
	C278.059601,253.932419 277.916656,251.860046 277.743256,249.346375 
	C268.393799,249.346375 259.342590,249.346375 250.334747,249.346375 
	C250.334747,246.817474 250.334747,244.766693 250.334747,242.747971 
	C252.726151,242.554932 254.792892,242.388107 256.863586,242.220947 
	C256.992340,239.671631 257.098267,237.574417 257.225128,235.062775 
	C259.641418,235.062775 261.704498,235.062775 263.796844,235.062775 
	C263.984619,232.556015 264.140045,230.481400 264.299500,228.352676 
	C266.714874,228.207916 268.770416,228.084732 270.666077,227.971115 
	C270.666077,223.137833 270.666077,218.740677 270.666077,214.355698 
	C268.257751,214.180496 266.194427,214.030396 264.140320,213.880966 
	C264.032135,211.516846 263.942902,209.567062 263.843353,207.391785 
	C256.891510,207.391785 250.166229,207.391785 243.026321,207.391785 
	C243.026321,212.013077 243.026321,216.439804 243.026321,221.290253 
	C240.493668,221.082474 238.401474,220.910828 236.021576,219.917984 
	C236.021576,213.475189 236.021576,207.032410 236.021576,200.148804 
	C240.865494,200.148804 245.269608,200.148804 249.725769,200.148804 
	C249.725769,195.297592 249.725769,190.902374 249.725769,186.432877 
	C231.064148,186.432877 212.683594,186.432877 194.212036,186.432877 
	C194.044388,188.782349 193.895554,190.867966 193.752930,192.866760 
	C191.358978,192.866760 189.294006,192.866760 187.214935,192.866760 
	C187.033264,190.509125 186.873901,188.441071 186.725494,186.515045 
	C179.594238,186.515045 172.872421,186.515045 166.348175,186.515045 
	C166.348175,191.172470 166.348175,195.473709 166.413803,199.726379 
	C166.413803,199.726379 166.463013,199.661240 165.561050,200.100250 
	C161.110275,200.100250 156.659515,200.100250 152.095261,200.100250 
	C152.095261,209.729462 152.095261,218.790207 152.095261,227.964203 
	C159.116913,227.964203 165.865570,227.964203 173.062073,227.964203 
	C173.062073,225.691574 173.062073,223.621368 173.062073,221.122772 
	C175.571381,221.122772 177.638916,221.122772 179.820724,221.122772 
	C179.977570,218.619904 180.108109,216.536987 180.245972,214.337189 
	C182.655243,214.206863 184.725021,214.094910 186.795700,213.982910 
	C186.979111,211.523575 187.133896,209.447906 187.288055,207.380753 
	C189.744049,207.203598 191.808868,207.054672 193.811203,206.910248 
	C193.992737,204.432266 194.144455,202.361145 194.312485,200.067566 
	C196.713852,200.067566 198.658173,200.067566 201.037659,200.067566 
	C201.037659,197.731628 201.037659,195.651245 201.037659,193.442688 
	C203.537949,193.442688 205.591339,193.442688 207.740845,193.442688 
	C207.740845,198.134079 207.740845,202.555389 207.740845,206.978790 
	C205.397354,207.135635 203.306915,207.275558 201.310394,207.409180 
	C201.310394,209.862701 201.310394,211.929535 201.310394,213.844055 
	C206.025574,213.844055 210.419678,213.844055 215.262772,213.844055 
	C215.262772,209.105042 215.262772,204.696228 215.262772,200.391968 
	C217.669144,200.391968 219.610596,200.391968 221.757935,200.391968 
	C221.757935,207.344498 221.757935,214.081284 221.757935,221.254822 
	C210.124893,221.254822 198.719940,221.254822 187.267090,221.254822 
	C187.267090,223.770004 187.267090,225.837952 187.267090,227.904327 
	C201.276001,227.904327 215.010452,227.904327 228.808914,227.904327 
	C228.980286,225.561768 229.132324,223.483643 229.275650,221.524551 
	C231.908020,221.194809 234.172058,220.911209 236.044159,221.541122 
	C236.044159,230.800720 236.044159,240.060318 236.044159,249.339203 
	C233.420135,249.339203 231.448898,249.339203 228.970154,249.339203 
	C228.970154,244.644028 228.970154,240.068863 228.970154,235.446732 
	C224.064957,235.446732 219.673813,235.446732 215.174835,235.446732 
	C215.174835,240.177856 215.174835,244.613724 215.174835,249.266022 
	C217.440369,249.430908 219.543640,249.583984 222.068695,249.767761 
	C222.068695,254.315140 222.068695,258.739471 222.068695,263.618103 
	C229.222961,263.618103 235.955719,263.618103 242.778305,263.618103 
	C242.957733,266.143921 243.104721,268.213043 243.297195,270.922485 
	C250.432800,270.922485 257.216827,270.922485 264.000977,271.882996 
	C264.011475,273.851593 264.021973,275.820221 263.142853,277.471161 
	C254.217255,277.471161 245.291672,277.471161 236.268982,277.471161 
	C236.072205,274.814758 235.919327,272.751007 235.771698,270.758148 
	C230.968704,270.758148 226.569977,270.758148 222.307251,270.758148 
	C222.307251,275.507202 222.307251,279.907318 222.307251,284.611450 
	C226.926926,284.611450 231.203018,284.611450 235.737061,284.611450 
	C235.892212,286.995483 236.027847,289.079620 236.174942,291.339722 
	C240.833359,291.339722 245.257095,291.339722 249.807373,291.339722 
	C249.980713,289.009674 250.136627,286.913971 250.284668,284.924255 
	C252.641525,284.924255 254.688873,284.924255 256.806213,284.924255 
	C256.931610,287.208771 257.038788,289.161774 257.158569,291.344238 
	C261.762939,291.344238 266.191620,291.344238 270.831055,291.344238 
	C270.831055,289.064941 270.831055,286.969116 270.831055,284.668701 
	C268.580505,284.508942 266.480347,284.359894 263.943359,284.179810 
	C263.943359,281.902832 263.943359,279.759186 264.876953,277.510529 
M285.021393,198.849472 
	C285.021393,194.740021 285.021393,190.630554 285.021393,186.427582 
	C280.090729,186.427582 275.695404,186.427582 271.196472,186.427582 
	C271.037720,188.771591 270.896881,190.850525 270.728363,193.338608 
	C266.018341,193.338608 261.608368,193.338608 257.307190,193.338608 
	C257.307190,195.853943 257.307190,197.925690 257.307190,199.531525 
	C266.872559,199.531525 276.115662,199.531525 285.044281,200.483337 
	C285.044281,209.681259 285.044281,218.879181 285.044281,227.863419 
	C290.048035,227.863419 294.439362,227.863419 298.802460,227.863419 
	C298.982513,225.493683 299.138763,223.436981 299.284760,221.514938 
	C301.966797,221.194473 304.222473,220.924957 306.042847,221.588440 
	C306.042847,223.681763 306.042847,225.775070 306.042847,227.970795 
	C310.866791,227.970795 315.250427,227.970795 319.785461,227.970795 
	C319.785461,225.690506 319.785461,223.633804 319.785461,221.388702 
	C315.165527,221.174469 310.764252,220.970383 306.035126,219.964188 
	C306.035126,218.173828 306.035126,216.383453 306.035126,214.179413 
	C308.477386,214.179413 310.561249,214.179413 313.078430,214.179413 
	C313.078430,211.701035 313.078430,209.613220 313.078430,207.120758 
	C315.578674,207.120758 317.641754,207.120758 319.714203,207.120758 
	C319.714203,202.276154 319.714203,197.868927 319.714203,193.291718 
	C317.365295,193.185791 315.296936,193.092529 313.223694,192.999039 
	C313.033600,190.524033 312.874573,188.453613 312.725464,186.512146 
	C305.602936,186.512146 298.877563,186.512146 292.348114,186.512146 
	C292.348114,191.168594 292.348114,195.471756 292.413727,199.726349 
	C292.413727,199.726349 292.462952,199.661194 291.627014,200.090836 
	C289.496521,199.946609 287.366028,199.802383 285.021393,198.849472 
M151.789948,256.499542 
	C151.789948,268.106384 151.789948,279.713196 151.789948,291.307648 
	C170.825882,291.307648 189.258423,291.307648 207.703064,291.307648 
	C207.703064,272.500549 207.703064,253.951416 207.703064,235.350647 
	C188.966354,235.350647 170.557770,235.350647 151.789978,235.350647 
	C151.789978,242.212585 151.789978,248.856110 151.789948,256.499542 
M186.499847,179.183197 
	C193.579071,179.183197 200.658295,179.183197 207.722900,179.183197 
	C207.722900,160.233994 207.722900,141.863022 207.722900,123.381638 
	C189.049377,123.381638 170.664581,123.381638 152.197662,123.381638 
	C152.197662,142.099823 152.197662,160.587662 152.197662,179.183197 
	C163.552139,179.183197 174.526031,179.183197 186.499847,179.183197 
M277.510925,123.158936 
	C273.083405,123.158936 268.655884,123.158936 264.290955,123.158936 
	C264.290955,142.192093 264.290955,160.590149 264.290955,178.881683 
	C282.974335,178.881683 301.358246,178.881683 319.690857,178.881683 
	C319.690857,160.203903 319.690857,141.824326 319.690857,123.158936 
	C305.753204,123.158936 292.130005,123.158936 277.510925,123.158936 
M151.497986,89.432243 
	C138.576706,89.432243 125.655418,89.432243 112.675003,89.432243 
	C112.675003,108.617546 112.675003,127.050644 112.675003,145.494553 
	C116.475166,145.494553 120.019142,145.494553 124.100624,145.494553 
	C124.100624,130.399994 124.100624,115.678108 124.100624,100.608017 
	C139.247665,100.608017 153.849213,100.608017 168.621521,100.608017 
	C168.621521,96.827530 168.621521,93.416275 168.621521,89.432297 
	C163.084213,89.432297 157.790421,89.432297 151.497986,89.432243 
M359.102966,90.436081 
	C357.742004,90.111572 356.382202,89.510292 355.019928,89.504768 
	C338.875000,89.439362 322.729675,89.455170 306.584503,89.480042 
	C305.489227,89.481728 304.394348,89.727211 303.469360,89.838791 
	C303.469360,93.602524 303.469360,97.024391 303.469360,100.817734 
	C318.363373,100.817734 332.939606,100.817734 348.136292,100.817734 
	C348.136292,116.039017 348.136292,130.889679 348.136292,145.527527 
	C352.162720,145.527527 355.559570,145.527527 359.180267,145.527527 
	C359.180267,127.236710 359.180267,109.272087 359.102966,90.436081 
M155.489471,313.983856 
	C145.053696,313.983856 134.617920,313.983856 123.761490,313.983856 
	C123.761490,298.786682 123.761490,284.063660 123.761490,269.335999 
	C119.790016,269.335999 116.256622,269.335999 112.812126,269.335999 
	C112.812126,288.063629 112.812126,306.437042 112.812126,324.604797 
	C131.695969,324.604797 150.230270,324.604797 168.602875,324.604797 
	C168.602875,320.917023 168.602875,317.642365 168.602875,313.983856 
	C164.403793,313.983856 160.444351,313.983856 155.489471,313.983856 
M348.000549,287.500610 
	C348.000549,296.254242 348.000549,305.007874 348.000549,314.240051 
	C332.742950,314.240051 318.039978,314.240051 303.383545,314.240051 
	C303.383545,318.001740 303.383545,321.270813 303.383545,324.628448 
	C322.092163,324.628448 340.584229,324.628448 358.995392,324.628448 
	C358.995392,305.995300 358.995392,287.733551 358.995392,269.297302 
	C355.284363,269.297302 351.750153,269.297302 348.000549,269.297302 
	C348.000549,275.228699 348.000549,280.864990 348.000549,287.500610 
M249.988419,138.564499 
	C249.988419,143.849579 249.988419,149.134659 249.988419,154.542038 
	C245.598404,154.542038 241.705109,154.542038 237.758087,154.542038 
	C237.562469,152.188660 237.389175,150.103912 237.217728,148.041351 
	C232.541763,148.041351 228.259323,148.041351 223.730927,148.041351 
	C223.730927,150.335236 223.730927,152.403625 223.730927,154.919922 
	C227.886749,154.919922 231.803665,154.919922 235.795654,154.919922 
	C235.962570,157.430832 236.100433,159.504562 236.267532,162.018250 
	C240.995041,162.018250 245.396759,162.018250 250.088181,162.018250 
	C250.088181,167.929520 250.088181,173.375854 250.088181,178.978760 
	C252.479767,178.978760 254.546158,178.978760 256.764374,178.978760 
	C256.764374,162.694626 256.764374,146.616074 256.764374,130.419281 
	C254.455139,130.419281 252.402252,130.419281 249.988419,130.419281 
	C249.988419,132.979218 249.988419,135.284729 249.988419,138.564499 
M214.991058,173.424957 
	C214.991058,175.211334 214.991058,176.997696 214.991058,178.814896 
	C222.263504,178.814896 229.103897,178.814896 235.637772,178.814896 
	C236.387024,174.170380 237.069275,169.941193 237.792114,165.460327 
	C232.709930,165.460327 228.342712,165.460327 223.772705,165.460327 
	C223.550705,167.774170 223.355667,169.806870 223.160629,171.839584 
	C222.758606,171.796097 222.356583,171.752625 221.954559,171.709137 
	C221.954559,157.986633 221.954559,144.264130 221.954559,130.412079 
	C219.469177,130.412079 217.418259,130.412079 214.991058,130.412079 
	C214.991058,144.590103 214.991058,158.516403 214.991058,173.424957 
M227.415039,142.609543 
	C228.197128,143.700562 228.898529,145.651062 229.775314,145.733368 
	C233.512650,146.084229 237.301865,145.882599 241.303040,145.882599 
	C241.303040,143.229736 241.303040,141.171066 241.303040,138.776993 
	C237.383255,138.776993 233.717300,138.569077 230.104202,138.914230 
	C229.125870,139.007675 228.307358,140.774094 227.415039,142.609543 
M283.620056,242.585419 
	C286.354645,242.585419 289.089233,242.585419 291.850586,242.585419 
	C291.850586,239.797272 291.850586,237.696518 291.850586,235.450287 
	C287.152802,235.450287 282.649109,235.450287 278.146362,235.450287 
	C278.146362,237.903473 278.146362,240.013748 278.146362,242.585342 
	C279.785004,242.585342 281.238434,242.585342 283.620056,242.585419 
z"/>
<path fill="#2A2A2A" opacity="1.000000" stroke="none" 
	d="
M263.644928,387.124268 
	C262.408569,387.597992 261.264587,387.643219 259.781281,387.617798 
	C259.403595,375.529694 259.365265,363.512268 259.632446,351.194702 
	C260.963074,350.933899 261.988159,350.973236 263.397644,351.018768 
	C263.767151,362.915192 263.752228,374.805481 263.644928,387.124268 
z"/>
<path fill="#F9F9F9" opacity="1.000000" stroke="none" 
	d="
M236.309265,220.739182 
	C238.401474,220.910828 240.493668,221.082474 243.026321,221.290253 
	C243.026321,216.439804 243.026321,212.013077 243.026321,207.391785 
	C250.166229,207.391785 256.891510,207.391785 263.843353,207.391785 
	C263.942902,209.567062 264.032135,211.516846 264.140320,213.880966 
	C266.194427,214.030396 268.257751,214.180496 270.666077,214.355698 
	C270.666077,218.740677 270.666077,223.137833 270.666077,227.971115 
	C268.770416,228.084732 266.714874,228.207916 264.299500,228.352676 
	C264.140045,230.481400 263.984619,232.556015 263.796844,235.062775 
	C261.704498,235.062775 259.641418,235.062775 257.225128,235.062775 
	C257.098267,237.574417 256.992340,239.671631 256.863586,242.220947 
	C254.792892,242.388107 252.726151,242.554932 250.334747,242.747971 
	C250.334747,244.766693 250.334747,246.817474 250.334747,249.346375 
	C259.342590,249.346375 268.393799,249.346375 277.743256,249.346375 
	C277.916656,251.860046 278.059601,253.932419 278.218140,256.230896 
	C280.437378,256.230896 282.492401,256.230896 284.819427,256.230896 
	C284.919464,254.146866 285.013458,252.188843 285.128876,249.784698 
	C289.555481,249.784698 293.949524,249.784698 298.681335,249.784698 
	C298.864227,247.263947 299.016510,245.164719 299.191620,242.751572 
	C301.302155,242.598297 303.411865,242.445084 305.766296,242.274094 
	C305.912689,240.040192 306.060272,237.787766 306.219635,235.356018 
	C310.746155,235.356018 315.014801,235.356018 319.648773,235.356018 
	C319.648773,237.574707 319.648773,239.800339 319.648773,242.317093 
	C317.643890,242.437286 315.533722,242.563782 313.232361,242.701752 
	C313.089478,244.894928 312.952454,246.998444 312.803070,249.291412 
	C310.529480,249.446732 308.432800,249.589981 305.980927,249.757492 
	C305.980927,253.910995 305.980927,257.883148 305.479126,262.579346 
	C300.724731,263.303406 296.472137,263.303406 292.228455,263.303406 
	C292.228455,266.073242 292.228455,268.151276 292.228455,270.446198 
	C294.552460,270.556458 296.620544,270.654572 298.733582,270.754791 
	C298.924500,273.203918 299.085449,275.268799 299.241333,277.268585 
	C301.693512,277.268585 303.758545,277.268585 306.259338,277.268585 
	C306.009033,272.174042 305.775574,267.421539 305.542084,262.669037 
	C310.244171,263.088104 314.946259,263.507202 319.779785,263.938019 
	C319.779785,273.004578 319.779785,282.056488 319.779785,291.288239 
	C312.804718,291.288239 306.062531,291.288239 299.188751,291.288239 
	C299.039886,288.951569 298.905548,286.842377 298.755920,284.493652 
	C296.575989,284.493652 294.611511,284.493652 292.265930,284.493652 
	C292.106171,282.210724 291.961609,280.144745 291.786011,277.635132 
	C289.676941,277.635132 287.617828,277.635132 285.247101,277.635132 
	C285.084534,275.134155 284.949615,273.058624 284.788666,270.582458 
	C282.734131,270.582458 280.802032,270.582458 278.466278,270.786865 
	C278.062622,270.991241 278.044678,271.085266 278.088867,270.636719 
	C278.133026,268.076538 278.133026,265.964935 278.133026,263.661591 
	C275.607910,263.471863 273.528931,263.315643 271.247253,263.144226 
	C271.111359,260.942871 270.983246,258.867737 270.844513,256.620544 
	C268.504913,256.620544 266.444550,256.620544 263.954590,256.620544 
	C263.954590,261.599701 263.954590,266.342438 263.944366,271.038330 
	C263.934143,270.991455 264.000824,270.922485 264.000824,270.922485 
	C257.216827,270.922485 250.432800,270.922485 243.297195,270.922485 
	C243.104721,268.213043 242.957733,266.143921 242.778305,263.618103 
	C235.955719,263.618103 229.222961,263.618103 222.068695,263.618103 
	C222.068695,258.739471 222.068695,254.315140 222.068695,249.767761 
	C219.543640,249.583984 217.440369,249.430908 215.174835,249.266022 
	C215.174835,244.613724 215.174835,240.177856 215.174835,235.446732 
	C219.673813,235.446732 224.064957,235.446732 228.970154,235.446732 
	C228.970154,240.068863 228.970154,244.644028 228.970154,249.339203 
	C231.448898,249.339203 233.420135,249.339203 236.044159,249.339203 
	C236.044159,240.060318 236.044159,230.800720 236.213654,221.118225 
	C236.383163,220.695312 236.309265,220.739182 236.309265,220.739182 
M249.933487,234.398849 
	C249.933487,232.346481 249.933487,230.294128 249.933487,228.410248 
	C247.242752,228.410248 245.312531,228.410248 243.231522,228.410248 
	C243.231522,230.711014 243.231522,232.769394 243.231522,235.079147 
	C245.402481,235.079147 247.347260,235.079147 249.933487,234.398849 
z"/>
<path fill="#FBFBFB" opacity="1.000000" stroke="none" 
	d="
M236.409637,220.661469 
	C234.172058,220.911209 231.908020,221.194809 229.275650,221.524551 
	C229.132324,223.483643 228.980286,225.561768 228.808914,227.904327 
	C215.010452,227.904327 201.276001,227.904327 187.267090,227.904327 
	C187.267090,225.837952 187.267090,223.770004 187.267090,221.254822 
	C198.719940,221.254822 210.124893,221.254822 221.757935,221.254822 
	C221.757935,214.081284 221.757935,207.344498 221.757935,200.391968 
	C219.610596,200.391968 217.669144,200.391968 215.262772,200.391968 
	C215.262772,204.696228 215.262772,209.105042 215.262772,213.844055 
	C210.419678,213.844055 206.025574,213.844055 201.310394,213.844055 
	C201.310394,211.929535 201.310394,209.862701 201.310394,207.409180 
	C203.306915,207.275558 205.397354,207.135635 207.740845,206.978790 
	C207.740845,202.555389 207.740845,198.134079 207.740845,193.442688 
	C205.591339,193.442688 203.537949,193.442688 201.037659,193.442688 
	C201.037659,195.651245 201.037659,197.731628 201.037659,200.067566 
	C198.658173,200.067566 196.713852,200.067566 194.312485,200.067566 
	C194.144455,202.361145 193.992737,204.432266 193.811203,206.910248 
	C191.808868,207.054672 189.744049,207.203598 187.288055,207.380753 
	C187.133896,209.447906 186.979111,211.523575 186.795700,213.982910 
	C184.725021,214.094910 182.655243,214.206863 180.245972,214.337189 
	C180.108109,216.536987 179.977570,218.619904 179.820724,221.122772 
	C177.638916,221.122772 175.571381,221.122772 173.062073,221.122772 
	C173.062073,223.621368 173.062073,225.691574 173.062073,227.964203 
	C165.865570,227.964203 159.116913,227.964203 152.095261,227.964203 
	C152.095261,218.790207 152.095261,209.729462 152.095261,200.100250 
	C156.659515,200.100250 161.110275,200.100250 165.808502,200.359589 
	C166.055969,205.068787 166.055969,209.518646 166.055969,213.885468 
	C168.620987,213.885468 170.696304,213.885468 172.800674,213.885468 
	C172.977615,211.526398 173.133316,209.450577 173.288574,207.380844 
	C175.740143,207.202103 177.805222,207.051559 179.617401,206.919434 
	C179.617401,204.434814 179.617401,202.380203 179.617401,200.385132 
	C174.935547,200.169846 170.641861,199.972397 166.348175,199.774963 
	C166.348175,195.473709 166.348175,191.172470 166.348175,186.515045 
	C172.872421,186.515045 179.594238,186.515045 186.725494,186.515045 
	C186.873901,188.441071 187.033264,190.509125 187.214935,192.866760 
	C189.294006,192.866760 191.358978,192.866760 193.752930,192.866760 
	C193.895554,190.867966 194.044388,188.782349 194.212036,186.432877 
	C212.683594,186.432877 231.064148,186.432877 249.725769,186.432877 
	C249.725769,190.902374 249.725769,195.297592 249.725769,200.148804 
	C245.269608,200.148804 240.865494,200.148804 236.021576,200.148804 
	C236.021576,207.032410 236.021576,213.475189 236.165421,220.328583 
	C236.309265,220.739182 236.383163,220.695312 236.409637,220.661469 
z"/>
<path fill="#F0F0F0" opacity="1.000000" stroke="none" 
	d="
M151.789963,255.999588 
	C151.789978,248.856110 151.789978,242.212585 151.789978,235.350647 
	C170.557770,235.350647 188.966354,235.350647 207.703064,235.350647 
	C207.703064,253.951416 207.703064,272.500549 207.703064,291.307648 
	C189.258423,291.307648 170.825882,291.307648 151.789948,291.307648 
	C151.789948,279.713196 151.789948,268.106384 151.789963,255.999588 
M158.874161,267.499237 
	C158.874161,273.095764 158.874161,278.692261 158.874161,284.146667 
	C173.236908,284.146667 186.948837,284.146667 200.666290,284.146667 
	C200.666290,270.149597 200.666290,256.441315 200.666290,242.861084 
	C186.647614,242.861084 172.932312,242.861084 158.874161,242.861084 
	C158.874161,250.933670 158.874161,258.716461 158.874161,267.499237 
z"/>
<path fill="#F9F9F9" opacity="1.000000" stroke="none" 
	d="
M185.999878,179.183197 
	C174.526031,179.183197 163.552139,179.183197 152.197662,179.183197 
	C152.197662,160.587662 152.197662,142.099823 152.197662,123.381638 
	C170.664581,123.381638 189.049377,123.381638 207.722900,123.381638 
	C207.722900,141.863022 207.722900,160.233994 207.722900,179.183197 
	C200.658295,179.183197 193.579071,179.183197 185.999878,179.183197 
M158.927155,171.374725 
	C165.158981,171.637589 171.388672,172.025177 177.623169,172.131668 
	C185.360458,172.263840 193.101715,172.163330 200.596313,172.163330 
	C200.596313,157.736252 200.596313,144.019623 200.596313,130.552765 
	C186.469757,130.552765 172.745163,130.552765 158.846146,130.552765 
	C158.846146,144.084763 158.846146,157.238312 158.927155,171.374725 
z"/>
<path fill="#FBFBFB" opacity="1.000000" stroke="none" 
	d="
M278.008850,123.158936 
	C292.130005,123.158936 305.753204,123.158936 319.690857,123.158936 
	C319.690857,141.824326 319.690857,160.203903 319.690857,178.881683 
	C301.358246,178.881683 282.974335,178.881683 264.290955,178.881683 
	C264.290955,160.590149 264.290955,142.192093 264.290955,123.158936 
	C268.655884,123.158936 273.083405,123.158936 278.008850,123.158936 
M285.503540,172.168488 
	C294.578888,172.168488 303.654266,172.168488 312.690338,172.168488 
	C312.690338,157.880554 312.690338,144.172913 312.690338,130.479111 
	C298.671265,130.479111 284.964050,130.479111 271.293243,130.479111 
	C271.293243,144.516296 271.293243,158.240829 271.293243,172.168488 
	C275.892059,172.168488 280.199097,172.168488 285.503540,172.168488 
z"/>
<path fill="#EFEFEF" opacity="1.000000" stroke="none" 
	d="
M151.997314,89.432266 
	C157.790421,89.432297 163.084213,89.432297 168.621521,89.432297 
	C168.621521,93.416275 168.621521,96.827530 168.621521,100.608017 
	C153.849213,100.608017 139.247665,100.608017 124.100624,100.608017 
	C124.100624,115.678108 124.100624,130.399994 124.100624,145.494553 
	C120.019142,145.494553 116.475166,145.494553 112.675003,145.494553 
	C112.675003,127.050644 112.675003,108.617546 112.675003,89.432243 
	C125.655418,89.432243 138.576706,89.432243 151.997314,89.432266 
z"/>
<path fill="#F6F6F6" opacity="1.000000" stroke="none" 
	d="
M359.141602,90.871765 
	C359.180267,109.272087 359.180267,127.236710 359.180267,145.527527 
	C355.559570,145.527527 352.162720,145.527527 348.136292,145.527527 
	C348.136292,130.889679 348.136292,116.039017 348.136292,100.817734 
	C332.939606,100.817734 318.363373,100.817734 303.469360,100.817734 
	C303.469360,97.024391 303.469360,93.602524 303.469360,89.838791 
	C304.394348,89.727211 305.489227,89.481728 306.584503,89.480042 
	C322.729675,89.455170 338.875000,89.439362 355.019928,89.504768 
	C356.382202,89.510292 357.742004,90.111572 359.141602,90.871765 
z"/>
<path fill="#F6F6F6" opacity="1.000000" stroke="none" 
	d="
M155.987183,313.983856 
	C160.444351,313.983856 164.403793,313.983856 168.602875,313.983856 
	C168.602875,317.642365 168.602875,320.917023 168.602875,324.604797 
	C150.230270,324.604797 131.695969,324.604797 112.812126,324.604797 
	C112.812126,306.437042 112.812126,288.063629 112.812126,269.335999 
	C116.256622,269.335999 119.790016,269.335999 123.761490,269.335999 
	C123.761490,284.063660 123.761490,298.786682 123.761490,313.983856 
	C134.617920,313.983856 145.053696,313.983856 155.987183,313.983856 
z"/>
<path fill="#FEFEFE" opacity="1.000000" stroke="none" 
	d="
M348.000549,287.000916 
	C348.000549,280.864990 348.000549,275.228699 348.000549,269.297302 
	C351.750153,269.297302 355.284363,269.297302 358.995392,269.297302 
	C358.995392,287.733551 358.995392,305.995300 358.995392,324.628448 
	C340.584229,324.628448 322.092163,324.628448 303.383545,324.628448 
	C303.383545,321.270813 303.383545,318.001740 303.383545,314.240051 
	C318.039978,314.240051 332.742950,314.240051 348.000549,314.240051 
	C348.000549,305.007874 348.000549,296.254242 348.000549,287.000916 
z"/>
<path fill="#FBFBFB" opacity="1.000000" stroke="none" 
	d="
M306.478149,220.655426 
	C304.222473,220.924957 301.966797,221.194473 299.284760,221.514938 
	C299.138763,223.436981 298.982513,225.493683 298.802460,227.863419 
	C294.439362,227.863419 290.048035,227.863419 285.044281,227.863419 
	C285.044281,218.879181 285.044281,209.681259 285.172302,200.040619 
	C285.300293,199.597900 285.235535,199.658142 285.235535,199.658142 
	C287.366028,199.802383 289.496521,199.946609 291.841492,200.354889 
	C292.055969,205.068802 292.055969,209.518661 292.055969,213.885437 
	C294.613617,213.885437 296.689941,213.885437 298.800568,213.885437 
	C298.977539,211.526367 299.133240,209.450546 299.288483,207.380859 
	C301.740204,207.202118 303.805267,207.051575 305.617371,206.919464 
	C305.617371,204.434814 305.617371,202.380188 305.617371,200.385147 
	C300.935455,200.169830 296.641785,199.972382 292.348114,199.774918 
	C292.348114,195.471756 292.348114,191.168594 292.348114,186.512146 
	C298.877563,186.512146 305.602936,186.512146 312.725464,186.512146 
	C312.874573,188.453613 313.033600,190.524033 313.223694,192.999039 
	C315.296936,193.092529 317.365295,193.185791 319.714203,193.291718 
	C319.714203,197.868927 319.714203,202.276154 319.714203,207.120758 
	C317.641754,207.120758 315.578674,207.120758 313.078430,207.120758 
	C313.078430,209.613220 313.078430,211.701035 313.078430,214.179413 
	C310.561249,214.179413 308.477386,214.179413 306.035126,214.179413 
	C306.035126,216.383453 306.035126,218.173828 306.231842,220.341675 
	C306.428558,220.719177 306.478149,220.655426 306.478149,220.655426 
z"/>
<path fill="#EBEBEB" opacity="1.000000" stroke="none" 
	d="
M263.943359,277.615540 
	C263.943359,279.759186 263.943359,281.902832 263.943359,284.179810 
	C266.480347,284.359894 268.580505,284.508942 270.831055,284.668701 
	C270.831055,286.969116 270.831055,289.064941 270.831055,291.344238 
	C266.191620,291.344238 261.762939,291.344238 257.158569,291.344238 
	C257.038788,289.161774 256.931610,287.208771 256.806213,284.924255 
	C254.688873,284.924255 252.641525,284.924255 250.284668,284.924255 
	C250.136627,286.913971 249.980713,289.009674 249.807373,291.339722 
	C245.257095,291.339722 240.833359,291.339722 236.174942,291.339722 
	C236.027847,289.079620 235.892212,286.995483 235.737061,284.611450 
	C231.203018,284.611450 226.926926,284.611450 222.307251,284.611450 
	C222.307251,279.907318 222.307251,275.507202 222.307251,270.758148 
	C226.569977,270.758148 230.968704,270.758148 235.771698,270.758148 
	C235.919327,272.751007 236.072205,274.814758 236.268982,277.471161 
	C245.291672,277.471161 254.217255,277.471161 263.567261,277.583191 
	C263.991669,277.695251 263.943359,277.615540 263.943359,277.615540 
z"/>
<path fill="#F9F9F9" opacity="1.000000" stroke="none" 
	d="
M249.988419,138.077362 
	C249.988419,135.284729 249.988419,132.979218 249.988419,130.419281 
	C252.402252,130.419281 254.455139,130.419281 256.764374,130.419281 
	C256.764374,146.616074 256.764374,162.694626 256.764374,178.978760 
	C254.546158,178.978760 252.479767,178.978760 250.088181,178.978760 
	C250.088181,173.375854 250.088181,167.929520 250.088181,162.018250 
	C245.396759,162.018250 240.995041,162.018250 236.267532,162.018250 
	C236.100433,159.504562 235.962570,157.430832 235.795654,154.919922 
	C231.803665,154.919922 227.886749,154.919922 223.730927,154.919922 
	C223.730927,152.403625 223.730927,150.335236 223.730927,148.041351 
	C228.259323,148.041351 232.541763,148.041351 237.217728,148.041351 
	C237.389175,150.103912 237.562469,152.188660 237.758087,154.542038 
	C241.705109,154.542038 245.598404,154.542038 249.988419,154.542038 
	C249.988419,149.134659 249.988419,143.849579 249.988419,138.077362 
z"/>
<path fill="#FAFAFA" opacity="1.000000" stroke="none" 
	d="
M214.991058,172.933823 
	C214.991058,158.516403 214.991058,144.590103 214.991058,130.412079 
	C217.418259,130.412079 219.469177,130.412079 221.954559,130.412079 
	C221.954559,144.264130 221.954559,157.986633 221.954559,171.709137 
	C222.356583,171.752625 222.758606,171.796097 223.160629,171.839584 
	C223.355667,169.806870 223.550705,167.774170 223.772705,165.460327 
	C228.342712,165.460327 232.709930,165.460327 237.792114,165.460327 
	C237.069275,169.941193 236.387024,174.170380 235.637772,178.814896 
	C229.103897,178.814896 222.263504,178.814896 214.991058,178.814896 
	C214.991058,176.997696 214.991058,175.211334 214.991058,172.933823 
z"/>
<path fill="#F9F9F9" opacity="1.000000" stroke="none" 
	d="
M285.329529,199.564713 
	C276.115662,199.531525 266.872559,199.531525 257.307190,199.531525 
	C257.307190,197.925690 257.307190,195.853943 257.307190,193.338608 
	C261.608368,193.338608 266.018341,193.338608 270.728363,193.338608 
	C270.896881,190.850525 271.037720,188.771591 271.196472,186.427582 
	C275.695404,186.427582 280.090729,186.427582 285.021393,186.427582 
	C285.021393,190.630554 285.021393,194.740021 285.128479,199.253815 
	C285.235535,199.658142 285.300293,199.597900 285.329529,199.564713 
z"/>
<path fill="#EBEBEB" opacity="1.000000" stroke="none" 
	d="
M227.415268,142.191101 
	C228.307358,140.774094 229.125870,139.007675 230.104202,138.914230 
	C233.717300,138.569077 237.383255,138.776993 241.303040,138.776993 
	C241.303040,141.171066 241.303040,143.229736 241.303040,145.882599 
	C237.301865,145.882599 233.512650,146.084229 229.775314,145.733368 
	C228.898529,145.651062 228.197128,143.700562 227.415268,142.191101 
z"/>
<path fill="#EBEBEB" opacity="1.000000" stroke="none" 
	d="
M283.155945,242.585388 
	C281.238434,242.585342 279.785004,242.585342 278.146362,242.585342 
	C278.146362,240.013748 278.146362,237.903473 278.146362,235.450287 
	C282.649109,235.450287 287.152802,235.450287 291.850586,235.450287 
	C291.850586,237.696518 291.850586,239.797272 291.850586,242.585419 
	C289.089233,242.585419 286.354645,242.585419 283.155945,242.585388 
z"/>
<path fill="#FEFEFE" opacity="1.000000" stroke="none" 
	d="
M264.410156,277.563049 
	C263.943359,277.615540 263.991669,277.695251 264.012085,277.742035 
	C264.021973,275.820221 264.011475,273.851593 264.000916,271.402740 
	C264.000824,270.922485 263.934143,270.991455 264.380920,270.854858 
	C269.233368,270.840576 273.639038,270.962921 278.044678,271.085266 
	C278.044678,271.085266 278.062622,270.991241 278.029846,270.956970 
	C277.997040,272.872406 277.997040,274.822174 277.997040,277.510529 
	C273.502930,277.510529 269.189941,277.510529 264.410156,277.563049 
z"/>
<path fill="#F6F6F6" opacity="1.000000" stroke="none" 
	d="
M306.395752,220.742737 
	C310.764252,220.970383 315.165527,221.174469 319.785461,221.388702 
	C319.785461,223.633804 319.785461,225.690506 319.785461,227.970795 
	C315.250427,227.970795 310.866791,227.970795 306.042847,227.970795 
	C306.042847,225.775070 306.042847,223.681763 306.260498,221.121933 
	C306.478149,220.655426 306.428558,220.719177 306.395752,220.742737 
z"/>
<path fill="#2E2E2E" opacity="1.000000" stroke="none" 
	d="
M305.558350,262.708862 
	C305.775574,267.421539 306.009033,272.174042 306.259338,277.268585 
	C303.758545,277.268585 301.693512,277.268585 299.241333,277.268585 
	C299.085449,275.268799 298.924500,273.203918 298.733582,270.754791 
	C296.620544,270.654572 294.552460,270.556458 292.228455,270.446198 
	C292.228455,268.151276 292.228455,266.073242 292.228455,263.303406 
	C296.472137,263.303406 300.724731,263.303406 305.307648,262.996948 
	C305.637970,262.690521 305.574585,262.748718 305.558350,262.708862 
z"/>
<path fill="#343434" opacity="1.000000" stroke="none" 
	d="
M278.088867,270.636719 
	C273.639038,270.962921 269.233368,270.840576 264.391174,270.901703 
	C263.954590,266.342438 263.954590,261.599701 263.954590,256.620544 
	C266.444550,256.620544 268.504913,256.620544 270.844513,256.620544 
	C270.983246,258.867737 271.111359,260.942871 271.247253,263.144226 
	C273.528931,263.315643 275.607910,263.471863 278.133026,263.661591 
	C278.133026,265.964935 278.133026,268.076538 278.088867,270.636719 
z"/>
<path fill="#171717" opacity="1.000000" stroke="none" 
	d="
M249.612762,234.738998 
	C247.347260,235.079147 245.402481,235.079147 243.231522,235.079147 
	C243.231522,232.769394 243.231522,230.711014 243.231522,228.410248 
	C245.312531,228.410248 247.242752,228.410248 249.933487,228.410248 
	C249.933487,230.294128 249.933487,232.346481 249.612762,234.738998 
z"/>
<path fill="#171717" opacity="1.000000" stroke="none" 
	d="
M166.380981,199.750671 
	C170.641861,199.972397 174.935547,200.169846 179.617401,200.385132 
	C179.617401,202.380203 179.617401,204.434814 179.617401,206.919434 
	C177.805222,207.051559 175.740143,207.202103 173.288574,207.380844 
	C173.133316,209.450577 172.977615,211.526398 172.800674,213.885468 
	C170.696304,213.885468 168.620987,213.885468 166.055969,213.885468 
	C166.055969,209.518646 166.055969,205.068787 166.259491,200.140091 
	C166.463013,199.661240 166.413803,199.726379 166.380981,199.750671 
z"/>
<path fill="#111111" opacity="1.000000" stroke="none" 
	d="
M158.874161,266.999268 
	C158.874161,258.716461 158.874161,250.933670 158.874161,242.861084 
	C172.932312,242.861084 186.647614,242.861084 200.666290,242.861084 
	C200.666290,256.441315 200.666290,270.149597 200.666290,284.146667 
	C186.948837,284.146667 173.236908,284.146667 158.874161,284.146667 
	C158.874161,278.692261 158.874161,273.095764 158.874161,266.999268 
M194.017700,265.483246 
	C194.017700,260.241913 194.017700,255.000580 194.017700,249.771362 
	C184.319168,249.771362 175.262192,249.771362 166.303391,249.771362 
	C166.303391,259.133484 166.303391,268.182648 166.303391,277.226593 
	C175.684021,277.226593 184.740036,277.226593 194.017700,277.226593 
	C194.017700,273.435089 194.017700,269.953491 194.017700,265.483246 
z"/>
<path fill="#151515" opacity="1.000000" stroke="none" 
	d="
M158.886658,170.883301 
	C158.846146,157.238312 158.846146,144.084763 158.846146,130.552765 
	C172.745163,130.552765 186.469757,130.552765 200.596313,130.552765 
	C200.596313,144.019623 200.596313,157.736252 200.596313,172.163330 
	C193.101715,172.163330 185.360458,172.263840 177.623169,172.131668 
	C171.388672,172.025177 165.158981,171.637589 158.886658,170.883301 
M193.311234,165.064713 
	C193.311234,155.896729 193.311234,146.728745 193.311234,137.444763 
	C184.428543,137.444763 175.389862,137.444763 166.261383,137.444763 
	C166.261383,146.768387 166.261383,155.819702 166.261383,165.152466 
	C175.123322,165.152466 183.730789,165.152466 193.311234,165.064713 
z"/>
<path fill="#151515" opacity="1.000000" stroke="none" 
	d="
M285.004822,172.168488 
	C280.199097,172.168488 275.892059,172.168488 271.293243,172.168488 
	C271.293243,158.240829 271.293243,144.516296 271.293243,130.479111 
	C284.964050,130.479111 298.671265,130.479111 312.690338,130.479111 
	C312.690338,144.172913 312.690338,157.880554 312.690338,172.168488 
	C303.654266,172.168488 294.578888,172.168488 285.004822,172.168488 
M278.004456,145.565125 
	C278.004456,151.994202 278.004456,158.423264 278.004456,164.927521 
	C287.543457,164.927521 296.585999,164.927521 305.735779,164.927521 
	C305.735779,155.647568 305.735779,146.604477 305.735779,137.441879 
	C296.435577,137.441879 287.397247,137.441879 278.004456,137.441879 
	C278.004456,140.000015 278.004456,142.294693 278.004456,145.565125 
z"/>
<path fill="#171717" opacity="1.000000" stroke="none" 
	d="
M292.380920,199.750641 
	C296.641785,199.972382 300.935455,200.169830 305.617371,200.385147 
	C305.617371,202.380188 305.617371,204.434814 305.617371,206.919464 
	C303.805267,207.051575 301.740204,207.202118 299.288483,207.380859 
	C299.133240,209.450546 298.977539,211.526367 298.800568,213.885437 
	C296.689941,213.885437 294.613617,213.885437 292.055969,213.885437 
	C292.055969,209.518661 292.055969,205.068802 292.259460,200.140076 
	C292.462952,199.661194 292.413727,199.726349 292.380920,199.750641 
z"/>
<path fill="#F6F6F6" opacity="1.000000" stroke="none" 
	d="
M194.017700,265.977600 
	C194.017700,269.953491 194.017700,273.435089 194.017700,277.226593 
	C184.740036,277.226593 175.684021,277.226593 166.303391,277.226593 
	C166.303391,268.182648 166.303391,259.133484 166.303391,249.771362 
	C175.262192,249.771362 184.319168,249.771362 194.017700,249.771362 
	C194.017700,255.000580 194.017700,260.241913 194.017700,265.977600 
z"/>
<path fill="#FDFDFD" opacity="1.000000" stroke="none" 
	d="
M192.824738,165.108582 
	C183.730789,165.152466 175.123322,165.152466 166.261383,165.152466 
	C166.261383,155.819702 166.261383,146.768387 166.261383,137.444763 
	C175.389862,137.444763 184.428543,137.444763 193.311234,137.444763 
	C193.311234,146.728745 193.311234,155.896729 192.824738,165.108582 
z"/>
<path fill="#FDFDFD" opacity="1.000000" stroke="none" 
	d="
M278.004456,145.077240 
	C278.004456,142.294693 278.004456,140.000015 278.004456,137.441879 
	C287.397247,137.441879 296.435577,137.441879 305.735779,137.441879 
	C305.735779,146.604477 305.735779,155.647568 305.735779,164.927521 
	C296.585999,164.927521 287.543457,164.927521 278.004456,164.927521 
	C278.004456,158.423264 278.004456,151.994202 278.004456,145.077240 
z"/>
</svg>