<?xml version="1.0" ?><!DOCTYPE svg  PUBLIC '-//W3C//DTD SVG 1.1//EN'  'http://www.w3.org/Graphics/SVG/1.1/DTD/svg11.dtd'><!-- Uploaded to: SVG Repo, www.svgrepo.com, Generator: SVG Repo Mixer Tools -->
<svg fill="#000000" width="800px" height="800px" viewBox="0 0 64 64" enable-background="new 0 0 64 64" id="Layer_1" version="1.1" xml:space="preserve" xmlns="http://www.w3.org/2000/svg" xmlns:xlink="http://www.w3.org/1999/xlink"><path d="M40.835,47.818c-0.582,0-1.97-0.008-3.751-0.018c-4.401-0.026-11.215-0.064-14.206-0.03c0,0,0,0-0.001,0  c-3.324,0-7.83-2.253-7.842-6.482c-0.006-2.208,0.012-4.117,0.029-5.955c0.027-2.926,0.053-5.69-0.024-9.208  c-0.129-5.882,2.456-9.413,7.092-9.688c2.534-0.151,7.256-0.256,11.484-0.256c4.166,0,9.432,0.094,10.863,0.544  c2.574,0.808,4.038,3.591,4.308,5.835c0.31,2.564,0.142,11.354,0.052,16.077c-0.026,1.34-0.045,2.346-0.045,2.772  c0,1.804-0.802,3.443-2.259,4.618C45.081,47.199,43.109,47.818,40.835,47.818z M26.091,45.758c3.355,0,7.813,0.025,11.004,0.043  c1.776,0.01,3.159,0.018,3.74,0.018c1.787,0,3.366-0.479,4.445-1.348c0.991-0.798,1.514-1.856,1.514-3.059  c0-0.433,0.019-1.453,0.045-2.812c0.089-4.674,0.255-13.374-0.038-15.8c-0.202-1.678-1.271-3.648-2.921-4.166  c-0.696-0.219-3.758-0.452-10.265-0.452c-4.193,0-8.866,0.104-11.366,0.252c-4.439,0.264-5.284,4.305-5.21,7.648  c0.078,3.549,0.052,6.328,0.024,9.271c-0.017,1.831-0.035,3.731-0.029,5.93c0.008,2.89,3.416,4.489,5.768,4.489  C23.687,45.762,24.808,45.758,26.091,45.758z"/><path d="M36.601,35.537c-0.438,0-1.426-0.016-2.528-0.034c-1.206-0.02-2.55-0.042-3.452-0.046c-0.541-0.003-0.981-0.436-0.994-0.977  c-0.069-2.984-0.074-6.988-0.074-8.145c0-0.552,0.448-1,1-1s1,0.448,1,1c0,1.029,0.004,4.326,0.054,7.131  c0.773,0.009,1.668,0.024,2.498,0.037c1.088,0.018,2.063,0.034,2.496,0.034c0.552,0,1,0.448,1,1S37.153,35.537,36.601,35.537z"/><path d="M18.936,33h-2.707c-0.552,0-1-0.448-1-1s0.448-1,1-1h2.707c0.552,0,1,0.448,1,1S19.488,33,18.936,33z"/><path d="M47.858,33h-3.056c-0.552,0-1-0.448-1-1s0.448-1,1-1h3.056c0.552,0,1,0.448,1,1S48.411,33,47.858,33z"/><path d="M31.98,20.556c-0.552,0-1-0.448-1-1c0-0.261,0.009-0.61,0.018-0.982c0.011-0.443,0.023-0.919,0.021-1.303  c-0.004-0.552,0.441-1.003,0.993-1.007c0.002,0,0.005,0,0.007,0c0.549,0,0.996,0.443,1,0.993c0.003,0.402-0.01,0.902-0.021,1.367  c-0.009,0.353-0.017,0.684-0.017,0.932C32.98,20.108,32.533,20.556,31.98,20.556z"/><path d="M31.98,47.522c-0.552,0-1-0.448-1-1c0-0.261,0.009-0.61,0.018-0.982c0.011-0.443,0.023-0.919,0.021-1.303  c-0.004-0.552,0.441-1.003,0.993-1.007c0.002,0,0.005,0,0.007,0c0.549,0,0.996,0.443,1,0.993c0.003,0.402-0.01,0.902-0.021,1.367  c-0.009,0.353-0.017,0.684-0.017,0.932C32.98,47.075,32.533,47.522,31.98,47.522z"/></svg>